<svg width="32" height="36" viewBox="0 0 32 36" fill="none" xmlns="http://www.w3.org/2000/svg">
<path d="M4.57143 2.25C2.05 2.25 0 4.26797 0 6.75V29.25C0 31.732 2.05 33.75 4.57143 33.75H27.4286C29.95 33.75 32 31.732 32 29.25V6.75C32 4.26797 29.95 2.25 27.4286 2.25H4.57143ZM25.7929 8.15625L18.3786 16.4953L27.1 27.8438H20.2714L14.9286 20.9602L8.80714 27.8438H5.41429L13.3429 18.9211L4.97857 8.15625H11.9786L16.8143 14.4492L22.4 8.15625H25.7929ZM23.0929 25.8469L10.9571 10.0477H8.93571L21.2071 25.8469H23.0929Z" fill="black"/>
</svg>
