<svg width="72" height="72" viewBox="0 0 72 72" fill="none" xmlns="http://www.w3.org/2000/svg">
<path d="M53.234 50.0131L6.34458 70.4156C3.28809 71.632 0.250595 68.6207 1.44042 65.554L21.9308 17.9265" fill="#FFB636"/>
<path d="M1.44043 65.5539L3.06887 61.7688L3.48751 61.13C11.5871 48.791 19.8053 36.5273 28.3043 24.4595L37.8338 34.2273C30.6436 39.1635 7.29704 63.2901 2.4068 69.6897C1.34227 68.7105 0.824912 67.1404 1.44043 65.5539Z" fill="#FFD469"/>
<path d="M42.8037 28.7485C51.5019 37.4467 56.2594 46.7918 53.4299 49.6215C50.6004 52.451 41.2553 47.6935 32.5569 38.9953C23.8586 30.2971 19.1012 20.952 21.9307 18.1223C24.7603 15.2927 34.1054 20.0501 42.8037 28.7485Z" fill="#A06C33"/>
<path d="M21.8814 46.0649C21.8814 46.9103 21.196 47.5956 20.3507 47.5956C19.5054 47.5956 18.82 46.9103 18.82 46.0649C18.82 45.2194 19.5052 44.5342 20.3507 44.5342C21.1961 44.5342 21.8814 45.2194 21.8814 46.0649Z" fill="#F7F9AA"/>
<path d="M70.5918 29.9757C70.5918 31.189 69.6083 32.1725 68.3949 32.1725C67.1816 32.1725 66.1981 31.189 66.1981 29.9757C66.1981 28.7623 67.1816 27.7788 68.3949 27.7788C69.6083 27.7788 70.5918 28.7623 70.5918 29.9757ZM55.9214 59.2288C54.7081 59.2288 53.7245 60.2123 53.7245 61.4256C53.7245 62.6389 54.7081 63.6224 55.9214 63.6224C57.1347 63.6224 58.1182 62.6389 58.1182 61.4256C58.1182 60.2123 57.1345 59.2288 55.9214 59.2288Z" fill="#FFB636"/>
<path d="M50.0553 11.1829C49.8669 12.4577 49.0433 13.5837 47.7955 14.2722C46.934 14.7475 45.921 14.9946 44.8695 14.9946C44.5345 14.9943 44.2 14.9696 43.8687 14.9206C43.1251 14.8106 42.3807 14.9229 41.8268 15.2284C41.5785 15.3654 41.1518 15.6651 41.0825 16.1338C41.0133 16.6025 41.335 17.0128 41.5329 17.2158C41.9629 17.6566 42.6192 17.9725 43.3398 18.0904C43.3596 18.0926 43.3793 18.0933 43.3991 18.0962C46.4393 18.5456 48.6108 20.9537 48.2396 23.4643C48.0511 24.7392 47.2275 25.8652 45.9796 26.5537C45.1181 27.029 44.1052 27.2761 43.0538 27.2761C42.7188 27.2758 42.3843 27.251 42.0529 27.2021C41.3094 27.092 40.5648 27.2042 40.0109 27.5099C39.7626 27.6469 39.3359 27.9466 39.2666 28.4153C39.1555 29.1675 40.0791 30.1606 41.5827 30.3828C42.4007 30.5037 42.9659 31.2649 42.8449 32.0831C42.735 32.827 42.0957 33.3616 41.3656 33.3616C41.2925 33.3616 41.2189 33.3562 41.1446 33.3453C38.1045 32.8959 35.9331 30.4877 36.3042 27.9772C36.4926 26.7023 37.3163 25.5763 38.5642 24.8878C39.6969 24.2629 41.0915 24.0326 42.491 24.2394C43.2346 24.3492 43.9788 24.2372 44.5329 23.9316C44.7812 23.7946 45.2079 23.4949 45.2772 23.0262C45.3864 22.2863 44.4929 21.3147 43.0324 21.0718C43.0085 21.0694 42.9844 21.0675 42.9604 21.064C41.561 20.857 40.2926 20.2331 39.3892 19.3071C38.394 18.287 37.9314 16.9708 38.1199 15.6957C38.3084 14.421 39.132 13.295 40.3798 12.6065C41.5125 11.9816 42.9071 11.7512 44.3066 11.9581C45.0499 12.0678 45.7945 11.9558 46.3485 11.6502C46.5968 11.5133 47.0235 11.2136 47.0928 10.7449C47.162 10.2762 46.8402 9.86585 46.6424 9.66293C46.2005 9.21011 45.5206 8.88724 44.7767 8.77741C43.9587 8.65647 43.3935 7.89527 43.5144 7.07711C43.6354 6.25896 44.3967 5.69449 45.2147 5.81472C46.6141 6.02172 47.8825 6.64554 48.7859 7.57155C49.7813 8.59179 50.2439 9.90804 50.0553 11.1829Z" fill="#BEA4FF"/>
<path d="M11.4934 22.4563C11.4934 23.8312 10.3788 24.9458 9.00393 24.9458C7.62904 24.9458 6.51445 23.8312 6.51445 22.4563C6.51445 21.0814 7.62904 19.9668 9.00393 19.9668C10.3788 19.9668 11.4934 21.0813 11.4934 22.4563ZM55.9935 19.5801C54.405 19.5801 53.1174 20.8678 53.1174 22.4561C53.1174 24.0445 54.4051 25.3322 55.9935 25.3322C57.5819 25.3322 58.8696 24.0445 58.8696 22.4561C58.8696 20.8678 57.582 19.5801 55.9935 19.5801ZM30.3088 55.6733C28.7203 55.6733 27.4327 56.961 27.4327 58.5494C27.4327 60.1377 28.7204 61.4254 30.3088 61.4254C31.8971 61.4254 33.1848 60.1377 33.1848 58.5494C33.1848 56.961 31.8973 55.6733 30.3088 55.6733ZM68.4607 42.5043C68.8957 41.6621 68.5655 40.6267 67.7233 40.1918C67.3875 40.0185 66.9867 39.7885 66.5227 39.5223C62.4455 37.1832 53.9622 32.3163 43.9732 40.3813C43.2356 40.9767 43.1205 42.0574 43.7159 42.7949C44.3112 43.5325 45.3918 43.6478 46.1295 43.0521C54.2907 36.463 60.8785 40.2417 64.8145 42.4997C65.293 42.7742 65.745 43.0335 66.148 43.2416C66.3483 43.3451 66.567 43.4081 66.7916 43.427C67.0162 43.446 67.2423 43.4205 67.4571 43.352C67.6719 43.2835 67.871 43.1734 68.0432 43.028C68.2154 42.8826 68.3573 42.7046 68.4607 42.5043Z" fill="#FF6E83"/>
<path d="M61.1485 8.82798C61.1485 9.67342 60.4631 10.3587 59.6178 10.3587C58.7725 10.3587 58.0871 9.67342 58.0871 8.82798C58.0871 7.98255 58.7724 7.29728 59.6178 7.29728C60.4633 7.29714 61.1485 7.98255 61.1485 8.82798ZM6.51432 1.6727C5.66888 1.6727 4.98361 2.35797 4.98361 3.20341C4.98361 4.04884 5.66888 4.73411 6.51432 4.73411C7.35975 4.73411 8.04516 4.04884 8.04516 3.20341C8.04516 2.35797 7.35975 1.6727 6.51432 1.6727ZM30.5163 21.6495C30.6894 21.31 30.9029 20.9234 31.1289 20.5142C32.2755 18.437 33.8458 15.5925 33.9403 12.2793C34.0538 8.29909 31.9808 4.68531 27.7792 1.53841C27.0498 0.992078 26.0159 1.14072 25.47 1.86986C24.9238 2.59914 25.0722 3.63302 25.8015 4.17906C29.1413 6.6805 30.7247 9.29936 30.6425 12.1853C30.5708 14.6985 29.2788 17.0391 28.2406 18.9197C28.0014 19.3532 27.7753 19.7626 27.5778 20.1497C27.1637 20.9612 27.4859 21.9548 28.2973 22.3689C28.529 22.4875 28.7855 22.5494 29.0458 22.5496C29.3501 22.5498 29.6485 22.4658 29.908 22.307C30.1676 22.1481 30.3781 21.9205 30.5163 21.6495Z" fill="#59CAFC"/>
</svg>
