<svg width="64" height="64" viewBox="0 0 64 64" fill="none" xmlns="http://www.w3.org/2000/svg">
<path d="M57.2427 14.5546C56.5585 12.7337 56.0756 10.8433 55.8027 8.91731C55.8266 8.3339 55.7133 7.75301 55.472 7.22131C54.2702 8.25832 53.2914 9.52838 52.5947 10.9546C51.9271 12.3179 51.3212 13.7104 50.7787 15.128C49.4665 18.6261 47.8076 21.9842 45.8267 25.152C44.3648 27.6526 42.9723 30.1931 41.6507 32.7706C40.2282 35.5333 38.646 38.2107 36.912 40.7893C33.4653 45.4739 31.0001 50.8063 29.664 56.4666C29.1467 58.9893 29.1307 58.944 30.5387 58.2826C31.2213 57.976 33.4853 57.216 35.5387 56.632C41.976 54.7653 43.0053 53.92 44.6427 49.0853C45.1736 46.6165 46.5196 44.398 48.464 42.7866C53.7467 38.1413 53.6987 38.2346 53.464 33.7786C53.1943 32.391 53.2681 30.9585 53.679 29.6059C54.0898 28.2533 54.8253 27.0218 55.8213 26.0186C59.176 21.6 59.2933 20.64 57.2427 14.5546ZM41.664 49.6506C41.2274 50.8615 40.4623 51.927 39.4544 52.7276C38.4465 53.5283 37.2356 54.0326 35.9573 54.184C34.3573 54.4506 33.5573 54.0658 33.5573 53.0293C33.5573 52.0373 33.792 51.872 35.3973 51.7306C36.737 51.6218 38.0048 51.0797 39.0089 50.1862C40.013 49.2927 40.6989 48.0966 40.9627 46.7786C41.152 46.2133 41.7413 46.2826 41.9067 46.896C42.1147 47.8171 42.0298 48.7801 41.664 49.6506ZM50.2747 37.528C49.5469 39.239 48.2686 40.658 46.6427 41.56C45.816 41.7733 45.2507 41.4186 45.1547 40.664C45.1093 40.192 45.32 39.9093 46.264 39.2266C47.8171 37.8235 48.9382 36.0067 49.496 33.9893L49.872 33.0453L50.32 33.9893C50.6074 34.536 50.7546 35.1454 50.7486 35.763C50.7425 36.3806 50.5834 36.987 50.2853 37.528H50.2747ZM55.392 23.128C54.992 25.2266 51.8773 26.9946 51.3573 25.416C51.1707 24.8026 51.3813 24.3786 52.184 23.928C53.8107 23.0106 54.2587 20.84 53.3867 18.2693C53.056 17.3013 53.0107 16.8773 53.1973 16.688C53.6453 16.24 53.928 16.4986 54.6613 17.9626C55.4228 19.5667 55.6813 21.3636 55.4027 23.1173L55.392 23.128ZM43.6107 16.136C42.4873 17.209 41.7006 18.586 41.3467 20.0986C41.3982 20.5373 41.5845 20.9491 41.88 21.2773C42.328 21.7946 42.68 21.9386 43.7467 22.032L45.0427 22.1253L46.7307 18.7546C47.4222 17.442 48.0288 16.0863 48.5467 14.696C48.712 14.0826 48.688 14.0586 47.6987 14.0586C46.9134 14.1156 46.1473 14.3287 45.4454 14.6854C44.7434 15.0421 44.1197 15.5353 43.6107 16.136ZM34.4107 34.696C36.8275 33.22 38.9607 31.3235 40.7093 29.096C41.7599 27.6729 42.6758 26.1553 43.4453 24.5626C43.3973 24.5386 42.832 24.3973 42.1947 24.232C41.7012 24.1725 41.2251 24.013 40.7954 23.7632C40.3658 23.5135 39.9916 23.1786 39.6958 22.7792C39.4 22.3798 39.1888 21.9243 39.0751 21.4404C38.9614 20.9566 38.9477 20.4546 39.0347 19.9653C39.2654 17.9428 40.2511 16.0818 41.7947 14.7546C44.552 12.056 47.7973 10.8533 49.104 12.032C49.3867 12.2986 49.6373 12.432 49.672 12.3866C49.7067 12.3413 50.072 11.5866 50.52 10.712C51.4571 8.88661 52.7769 7.28485 54.3893 6.01598L55.3307 5.33331L54.4107 5.35731C51.5813 5.42665 49.6107 6.58398 45.3067 10.6906C42.7982 13.7532 39.2275 15.7576 35.3067 16.304C32.4292 16.6657 29.7263 17.8816 27.5467 19.7946C26.7525 20.8108 26.0205 21.8741 25.3547 22.9786C24.5001 24.7021 23.2848 26.2215 21.7913 27.4339C20.2978 28.6463 18.561 29.5233 16.6987 30.0053C15.2618 30.5389 13.8528 31.145 12.4773 31.8213C9.32191 33.6888 7.00128 36.6936 5.99201 40.2186C5.30667 42.272 5.33067 42.352 6.39201 42.352C7.63798 42.4692 8.87518 42.6661 10.096 42.9413C17.8293 44.568 19.576 44.144 24.128 39.4986C25.1177 38.4631 26.1818 37.5014 27.312 36.6213C28.3866 36.2455 29.491 35.961 30.6133 35.7706C31.9111 35.5368 33.1829 35.1769 34.4107 34.696ZM19.128 41.8186C18.1382 42.3732 16.9997 42.6045 15.872 42.48C14.8531 42.5824 13.8256 42.4035 12.9013 41.9626C12.0672 41.5383 11.358 40.904 10.8437 40.1221C10.3293 39.3403 10.0275 38.438 9.96801 37.504C10.1973 36.1844 10.769 34.948 11.6258 33.9185C12.4826 32.889 13.5946 32.1024 14.8507 31.6373C16.3037 31.201 17.8517 31.1927 19.3093 31.6133C19.7333 31.944 19.6853 31.9893 18.5787 32.4613C16.9757 32.9871 15.4755 33.7855 14.144 34.8213C11.9493 36.7546 12.0453 38.9466 14.3547 39.9146C15.7977 40.2542 17.3148 40.062 18.6275 39.3733C19.9403 38.6846 20.9606 37.5456 21.5013 36.1653C22.2107 34.7013 22.1627 33.9706 21.2907 33.5226C20.512 33.1226 20.3947 32.6746 20.96 32.1306C21.456 31.6373 21.5973 31.6586 22.4453 32.368C25 34.4853 23.16 39.696 19.128 41.8186ZM25.544 32.8586C25.0704 32.4229 24.6981 31.8885 24.4534 31.2932C24.2088 30.6979 24.0977 30.0562 24.128 29.4133C24.3138 27.5066 25.0508 25.6952 26.2488 24.2002C27.4469 22.7053 29.0542 21.5914 30.8747 20.9946C31.4633 20.6609 32.1292 20.4875 32.8059 20.4917C33.4825 20.4959 34.1462 20.6776 34.7307 21.0186C35.5307 21.7493 35.6987 21.632 31.8293 23.0453C30.5551 23.5247 29.421 24.3153 28.5305 25.3451C27.6399 26.375 27.0212 27.6112 26.7307 28.9413C26.7426 29.4686 26.8927 29.9836 27.166 30.4347C27.4392 30.8858 27.8262 31.2573 28.288 31.512C29.399 31.7579 30.5525 31.737 31.6538 31.451C32.7552 31.165 33.773 30.6221 34.624 29.8666C37.1947 27.8853 37.76 26.1653 36.2747 24.8213C35.2373 23.8773 35.1413 22.9093 36.0373 22.5093C36.8373 22.1546 37.712 22.776 38.4667 24.2293C38.835 25.0579 38.9871 25.9664 38.9088 26.8698C38.8304 27.7731 38.5242 28.6419 38.0187 29.3946C37.0286 31.2044 35.4714 32.6388 33.5867 33.4773C32.5429 34.0394 31.3749 34.331 30.1893 34.3253C29.3544 34.4525 28.5015 34.3864 27.6961 34.1321C26.8908 33.8779 26.1545 33.4422 25.544 32.8586Z" fill="#FFEBD6"/>
<path d="M13.3333 50.6666L32 32M32 32L50.6667 13.3333M32 32L13.3333 13.3333M32 32L50.6667 50.6666" stroke="#EA236F" stroke-width="4" stroke-linecap="round" stroke-linejoin="round"/>
</svg>
