<svg width="64" height="64" viewBox="0 0 64 64" fill="none" xmlns="http://www.w3.org/2000/svg">
<path fill-rule="evenodd" clip-rule="evenodd" d="M31.648 20.82C26.444 15.612 19.94 13.432 14.856 12.54C12.7424 12.1659 10.6022 11.9626 8.45601 11.932C7.64487 11.9212 6.83362 11.9412 6.02401 11.992L5.87601 12.004H5.83601L5.82001 12.008H5.81201L4.29201 12.152L4.03201 13.656L4.02801 13.676L4.02001 13.724L3.98801 13.904L3.89601 14.556C3.46416 17.9151 3.35165 21.3076 3.56001 24.688C3.95201 30.732 5.59201 38.424 10.936 43.768C16.16 48.992 22.528 51.028 27.496 51.772C29.6467 52.0947 31.8223 52.2219 33.996 52.152V48.832L18.584 33.412L21.416 30.58L34 43.172V23.704C33.312 22.664 32.528 21.7 31.648 20.82ZM38 29.2V43.84L44.752 38.44L47.248 41.56L38 48.96V52.112C39.4626 52.1294 40.9247 52.0466 42.376 51.864C46.012 51.396 50.736 50.096 54.248 46.584C57.792 43.036 59.156 37.68 59.696 33.548C60.0141 31.0575 60.1185 28.5443 60.008 26.036L60 25.908V25.868L59.996 25.86L59.876 24.248L58.284 24.02H58.268L58.232 24.012L58.112 23.996L57.668 23.944C55.4325 23.7178 53.1818 23.6803 50.94 23.832C47.032 24.12 41.88 25.156 38.56 28.616L38.4 28.776L38 29.2Z" fill="#FFEBD6"/>
<path d="M13.3333 50.6666L32 32M32 32L50.6667 13.3333M32 32L13.3333 13.3333M32 32L50.6667 50.6666" stroke="#EA236F" stroke-width="4" stroke-linecap="round" stroke-linejoin="round"/>
</svg>
