<svg width="64" height="64" viewBox="0 0 64 64" fill="none" xmlns="http://www.w3.org/2000/svg">
<path d="M18 9.125C17.0625 9.125 15.8 9.93 14.5 11.6987C13.2 13.4625 11.9088 16.075 10.8088 19.125C8.72625 24.9125 7.30375 32.3 7.15375 38.875H12.8875C12.9875 32.05 13.9625 24.4875 15.6625 18.45C16.5625 15.25 17.6375 12.4863 18.9625 10.425C19.0875 10.2363 19.2125 10.055 19.3375 9.87625C19.25 9.77 19.175 9.675 19.1 9.59625C18.75 9.2525 18.475 9.125 18 9.125ZM24 9.125C23.0625 9.125 21.975 9.885 20.85 11.6375C19.7375 13.3875 18.6875 16 17.8375 19.05C16.2125 24.8375 15.25 32.25 15.15 38.875H22.875C22.925 32.1 23.4375 24.5625 24.65 18.525C25.1625 15.975 25.775 13.7 26.5875 11.8313C26.5375 11.7125 26.4875 11.5975 26.4375 11.4862C26.0625 10.6275 25.6375 10.0038 25.225 9.635C24.8125 9.26625 24.475 9.125 24 9.125ZM32 9.125C31.0625 9.125 30.15 9.8325 29.2125 11.5662C28.275 13.3 27.4625 15.9125 26.85 18.975C25.6875 24.775 25.2 32.2 25.15 38.875H38.85C38.8 32.2 38.3125 24.775 37.15 18.975C36.5375 15.9125 35.725 13.3 34.7875 11.5662C33.85 9.8325 32.9375 9.125 32 9.125ZM40 9.125C39.525 9.125 39.1875 9.26625 38.775 9.635C38.3625 10.0038 37.9375 10.6275 37.5625 11.4862C37.5125 11.5975 37.4625 11.7125 37.4125 11.8313C38.225 13.7 38.8375 15.975 39.35 18.525C40.5625 24.5625 41.075 32.1 41.125 38.875H48.85C48.75 32.25 47.7875 24.8375 46.1625 19.05C45.3125 16 44.2625 13.3875 43.15 11.6375C42.025 9.885 40.9375 9.125 40 9.125ZM46 9.125C45.5375 9.125 45.25 9.2525 44.9 9.59625C44.825 9.675 44.75 9.77 44.6625 9.87625C44.7875 10.055 44.9125 10.2363 45.0375 10.425C46.3625 12.4863 47.4375 15.25 48.3375 18.45C50.0375 24.4875 51.0125 32.05 51.1125 38.875H56.85C56.7 32.3 55.275 24.9125 53.1875 19.125C52.0875 16.075 50.8 13.4625 49.5 11.6987C48.2 9.93 46.9375 9.125 46 9.125ZM23.4625 11.045C23.9375 11.0513 24.0625 11.7613 23.6875 12.5C21.925 15.65 19.7875 21.3125 18.5125 24.7625C18.425 21.3625 20.7625 14.1 22.775 11.4012C23.05 11.1475 23.2875 11.0425 23.4625 11.045ZM16.475 11.1263C16.8625 11.1388 17.175 11.6325 17 12.1038C14.025 15.7 12.9875 19.3125 11.5113 22.9125C12.0275 18.1875 13.775 14.8125 15.9375 11.4563C16.1 11.215 16.3 11.1213 16.475 11.1263ZM40.575 11.3237C40.7625 11.3237 40.9625 11.3338 41.175 11.3538C39.7625 12.3525 39.375 12.9625 39.1375 13.9125C38.6875 12.235 38.8125 11.3225 40.575 11.3237ZM31.75 11.5387C32.1625 11.5462 32.425 12.0025 32.275 12.5125C30.25 17.3625 28.275 22.35 27.65 27.65C27.0875 23.8875 27.85 16.625 30.9 12.0962C31.2 11.6912 31.5125 11.5337 31.75 11.5387ZM5.1925 41.125C5.48625 43.7875 6.84501 45.2375 8.47501 46.875H55.525C57.15 45.2375 58.5125 43.7875 58.8125 41.125H5.1925ZM28 49.125V55.5L18 61.5H46L36 55.5V49.125H28Z" fill="#FFEBD6"/>
<path d="M13.3333 50.6666L32 32M32 32L50.6667 13.3333M32 32L13.3333 13.3333M32 32L50.6667 50.6666" stroke="#EA236F" stroke-width="4" stroke-linecap="round" stroke-linejoin="round"/>
</svg>
