<svg width="64" height="64" viewBox="0 0 64 64" fill="none" xmlns="http://www.w3.org/2000/svg">
<path d="M5.33333 58.6666L42.6667 21.3333M42.6667 21.3333H48C50.829 21.3333 53.5421 20.2095 55.5425 18.2091C57.5429 16.2087 58.6667 13.4956 58.6667 10.6666V5.33331H53.3333C50.5044 5.33331 47.7912 6.45712 45.7909 8.45751C43.7905 10.4579 42.6667 13.171 42.6667 16V21.3333ZM9.25333 33.4133L13.3333 29.3333L17.4133 33.4133C19.1557 35.1626 20.134 37.531 20.134 40C20.134 42.469 19.1557 44.8374 17.4133 46.5866L13.3333 50.6666L9.25333 46.5866C7.51093 44.8374 6.53263 42.469 6.53263 40C6.53263 37.531 7.51093 35.1626 9.25333 33.4133ZM19.92 22.7466L24 18.6666L28.08 22.7466C29.8224 24.4959 30.8007 26.8643 30.8007 29.3333C30.8007 31.8023 29.8224 34.1707 28.08 35.92L24 40L19.92 35.92C18.1776 34.1707 17.1993 31.8023 17.1993 29.3333C17.1993 26.8643 18.1776 24.4959 19.92 22.7466ZM30.5867 12.08L34.6667 7.99998L38.7467 12.08C40.4891 13.8293 41.4674 16.1977 41.4674 18.6666C41.4674 21.1356 40.4891 23.504 38.7467 25.2533L34.6667 29.3333L30.5867 25.2533C28.8443 23.504 27.866 21.1356 27.866 18.6666C27.866 16.1977 28.8443 13.8293 30.5867 12.08Z" stroke="#FFEBD6" stroke-width="5.33333" stroke-linecap="round" stroke-linejoin="round"/>
<path d="M30.5867 46.5866L34.6667 50.6666L30.5867 54.7466C28.8374 56.489 26.469 57.4673 24 57.4673C21.531 57.4673 19.1626 56.489 17.4133 54.7466L13.3333 50.6666L17.4133 46.5866C19.1626 44.8442 21.531 43.8659 24 43.8659C26.469 43.8659 28.8374 44.8442 30.5867 46.5866ZM41.2533 35.92L45.3333 40L41.2533 44.08C39.5041 45.8224 37.1357 46.8007 34.6667 46.8007C32.1977 46.8007 29.8293 45.8224 28.08 44.08L24 40L28.08 35.92C29.8293 34.1776 32.1977 33.1993 34.6667 33.1993C37.1357 33.1993 39.5041 34.1776 41.2533 35.92ZM51.92 25.2533L56 29.3333L51.92 33.4133C50.1707 35.1557 47.8023 36.134 45.3333 36.134C42.8643 36.134 40.4959 35.1557 38.7467 33.4133L34.6667 29.3333L38.7467 25.2533C40.4959 23.5109 42.8643 22.5326 45.3333 22.5326C47.8023 22.5326 50.1707 23.5109 51.92 25.2533Z" stroke="#FFEBD6" stroke-width="5.33333" stroke-linecap="round" stroke-linejoin="round"/>
<path d="M13.3333 50.6666L32 32M32 32L50.6667 13.3333M32 32L13.3333 13.3333M32 32L50.6667 50.6666" stroke="#EA236F" stroke-width="4" stroke-linecap="round" stroke-linejoin="round"/>
</svg>
