<svg width="19" height="21" viewBox="0 0 19 21" fill="none" xmlns="http://www.w3.org/2000/svg">
<path fill-rule="evenodd" clip-rule="evenodd" d="M8.11417 0H4.12767V0.270667C4.12417 1.86433 4.12183 3.40025 4.9735 4.83233C5.56617 5.82808 6.44758 6.5275 7.336 7.23275C7.46667 7.33581 7.59694 7.43964 7.72683 7.54425C9.4885 8.96583 8.386 11.2157 6.53217 11.7442C5.95875 11.9076 5.41742 12.0289 4.90875 12.1421C2.898 12.5901 1.39883 12.9237 0.40075 15.3638C0.136451 16.0088 0.000332437 16.6991 0 17.3962V21H3.98242V17.2398C3.98242 16.2079 5.14967 15.5773 6.05325 16.0224C8.42042 17.1879 11.2554 17.5589 13.7941 16.5742C15.5079 15.9098 16.6606 14.6545 17.5945 13.1285C18.9577 10.9002 19.012 8.05292 17.7316 5.77617C16.6098 3.78058 15.0494 1.82467 12.523 1.82467C12.0143 1.82467 11.4672 2.023 10.9276 2.21725C9.97792 2.56142 9.05217 2.89567 8.40175 2.12508C8.036 1.69283 8.06925 1.03658 8.09842 0.453833C8.10658 0.295167 8.11475 0.14175 8.11417 0ZM16.4249 10.395C17.108 10.8237 17.4516 11.6801 17.2573 12.3923C17.9264 13.2253 14.3267 15.1818 12.334 16.2651C11.8557 16.5247 11.4695 16.7341 11.2577 16.8659C11.1459 16.6861 11.045 16.4997 10.9556 16.3077C10.2311 16.1665 9.61508 15.4793 9.53342 14.6767C9.45175 13.874 9.93183 13.2335 10.6342 13.1542C10.7317 12.7904 10.8846 12.4437 11.0874 12.1263C10.7456 11.3913 10.9165 10.5572 11.5179 10.1838C12.1193 9.8105 12.9424 10.0263 13.4499 10.6581C13.8243 10.6168 14.2029 10.6333 14.5722 10.7071C14.9543 10.1127 15.7418 9.96625 16.4249 10.395Z" fill="#3F8133"/>
<path fill-rule="evenodd" clip-rule="evenodd" d="M17.5945 13.1285C18.9577 10.9002 19.012 8.05292 17.7316 5.77617C16.6098 3.78058 15.0494 1.82467 12.523 1.82467C12.0143 1.82467 11.4672 2.023 10.9276 2.21725C9.97792 2.56142 9.05217 2.89567 8.40175 2.12508C8.18183 1.86492 8.106 1.52425 8.08675 1.16667C8.07508 0.929833 8.08675 0.686 8.09842 0.453833C8.10735 0.302706 8.1126 0.151383 8.11417 0H4.12825V0.270667C4.12747 0.450333 4.12747 0.629222 4.12825 0.807333C4.12825 0.9275 4.12942 1.04728 4.13175 1.16667C4.1545 2.44067 4.28342 3.67092 4.97467 4.83233C5.56675 5.82808 6.44817 6.5275 7.33717 7.23275C7.46744 7.33581 7.59733 7.43964 7.72683 7.54425C9.48908 8.96583 8.386 11.2157 6.53275 11.7442C5.95933 11.9076 5.418 12.0289 4.90933 12.1421C2.89858 12.5901 1.39942 12.9237 0.401333 15.3638C0.136834 16.0088 0.000517561 16.6991 0 17.3962V21H3.98242V17.2398C3.98242 16.2079 5.14967 15.5773 6.05325 16.0224C8.42042 17.1879 11.2554 17.5589 13.7941 16.5742C15.5079 15.9098 16.6606 14.6545 17.5945 13.1285ZM2.81575 19.8333V17.2398C2.81575 15.2332 4.99158 14.1995 6.56833 14.9759C8.71208 16.0312 11.2029 16.3281 13.3729 15.4869C14.7595 14.9491 15.7395 13.9247 16.5988 12.5195C17.7421 10.6511 17.7876 8.25533 16.7148 6.34783C15.6077 4.3785 14.3447 2.99133 12.523 2.99133C12.3626 2.99133 12.1368 3.03683 11.7938 3.15C11.6439 3.199 11.4928 3.25383 11.3231 3.31508L11.2665 3.3355C11.0816 3.40258 10.8739 3.47667 10.6639 3.542C10.2614 3.66742 9.73292 3.79867 9.17642 3.75025C8.561 3.696 7.97475 3.42767 7.51042 2.87817C7.02917 2.30825 6.93758 1.62983 6.9195 1.16667H5.30017C5.3235 2.36717 5.43608 3.32792 5.97683 4.23558C6.45167 5.03475 7.15108 5.59183 8.0535 6.31225C8.18417 6.41569 8.31931 6.52361 8.45892 6.636C9.73467 7.66558 10.0339 9.10817 9.58475 10.3705C9.163 11.5529 8.11942 12.5049 6.85242 12.866C6.24225 13.0404 5.66008 13.1699 5.14967 13.2837L4.80842 13.3595C4.20175 13.4977 3.72575 13.6208 3.31392 13.7906C2.5935 14.0881 1.99267 14.553 1.4805 15.8054C1.27356 16.3102 1.16696 16.8506 1.16667 17.3962V19.8333H2.81575Z" fill="#3F8133"/>
</svg>
