<svg width="64" height="64" viewBox="0 0 64 64" fill="none" xmlns="http://www.w3.org/2000/svg">
<path fill-rule="evenodd" clip-rule="evenodd" d="M14.8206 7.82169C17.6868 6.57826 19.9634 6.62855 21.7646 7.44683C23.616 8.28798 25.4537 10.1714 26.9257 13.5543C27.4804 14.8434 27.8552 16.032 28.0503 17.12C28.3154 18.5371 29.5908 19.5337 31.0308 19.4514C32.7954 19.3417 34.4548 19.8308 35.9588 21.0925C35.2731 21.5345 34.6392 22.048 34.0571 22.6331C32.5943 24.096 31.5794 25.8788 30.9714 27.8994C30.6808 28.8694 30.4803 29.864 30.3726 30.8708C30.2424 32.0564 30.2179 33.2512 30.2994 34.4411C29.5253 34.4411 28.7527 34.4457 27.9817 34.4548C27.4057 30.208 26.3954 25.2388 22.2446 20.3794C22.0035 20.0854 21.7063 19.8425 21.3702 19.6649C21.0341 19.4873 20.666 19.3785 20.2874 19.3449C19.9087 19.3114 19.5272 19.3537 19.1651 19.4694C18.803 19.5852 18.4677 19.772 18.1787 20.019C17.8897 20.266 17.653 20.5682 17.4823 20.9078C17.3116 21.2475 17.2103 21.6178 17.1845 21.997C17.1587 22.3763 17.2089 22.7569 17.332 23.1165C17.4552 23.4761 17.6488 23.8076 17.9017 24.0914C20.8183 27.5063 21.6731 30.8663 22.2171 34.5508C18.2489 34.6403 14.2821 34.7835 10.3177 34.9805C9.63199 31.68 10.4731 29.2937 12.256 27.5977C12.7604 27.1177 13.0722 26.4701 13.1328 25.7765C13.1934 25.0829 12.9987 24.391 12.5851 23.8308C11.8522 22.8175 11.2372 21.724 10.752 20.5714C9.27999 17.1885 9.16113 14.5645 9.81027 12.6354C10.4366 10.7611 11.9588 9.06969 14.8206 7.82169ZM58.5143 36.2423C58.6819 35.2305 58.7642 34.1775 58.7611 33.0834C58.7611 28.9097 57.5817 25.248 54.9623 22.6331C52.3428 20.0183 48.6811 18.8343 44.5074 18.8343C43.5931 18.8343 42.7048 18.8922 41.8423 19.008C39.5337 16.0914 36.5668 14.2537 33.1108 13.8194C32.846 12.9542 32.53 12.1055 32.1646 11.2777C30.336 7.0674 27.6708 3.85369 24.128 2.23998C20.5348 0.612547 16.5348 0.850261 12.5486 2.58283C8.5577 4.31083 5.65027 7.07198 4.39313 10.8114C3.15427 14.5005 3.67999 18.6423 5.50856 22.848C5.88341 23.7013 6.28875 24.5105 6.72456 25.2754C4.42056 28.4571 3.86741 32.3703 4.8137 36.5394C3.61215 37.132 2.62001 38.0771 1.96979 39.2484C1.31958 40.4198 1.04225 41.7617 1.17484 43.0948C1.78741 49.1611 3.2137 54.4548 8.13256 58.0068C12.8457 61.408 20.3428 62.8571 32 62.8571C43.6571 62.8571 51.1497 61.4125 55.8674 58.0068C60.7863 54.4594 62.2126 49.1657 62.8251 43.0994C62.9657 41.6407 62.6188 40.1765 61.8389 38.9358C61.0589 37.6951 59.8898 36.7479 58.5143 36.2423ZM36.032 34.4594C41.6681 34.5112 47.3027 34.6728 52.9326 34.944C53.0088 34.3741 53.0468 33.7539 53.0468 33.0834C53.0468 29.9611 52.1783 27.9314 50.9211 26.6743C49.664 25.4171 47.6297 24.5485 44.5074 24.5485C43.3097 24.5546 42.2644 24.6735 41.3714 24.9051L41.3074 24.9234C40.974 25.0115 40.6459 25.1183 40.3246 25.2434C39.715 25.4872 39.1817 25.7813 38.7246 26.1257C37.9324 26.7183 37.3008 27.4992 36.8868 28.3977C36.32 29.5725 35.9726 31.1085 35.9726 33.0834C35.9726 33.568 35.9924 34.0297 36.032 34.4594Z" fill="#FFEBD6"/>
</svg>
