<svg width="28" height="28" viewBox="0 0 28 28" fill="none" xmlns="http://www.w3.org/2000/svg">
<path d="M16.625 4.95834C16.625 5.47727 16.4712 5.98456 16.183 6.41611C15.8948 6.84766 15.4852 7.18411 15.0059 7.38296C14.5266 7.58181 13.9991 7.63414 13.49 7.53332C12.981 7.43251 12.5133 7.18308 12.1459 6.81655C11.7786 6.45002 11.5281 5.98284 11.4262 5.47402C11.3242 4.96521 11.3754 4.43759 11.5731 3.95783C11.7709 3.47808 12.1065 3.06771 12.5374 2.77857C12.9683 2.48943 13.4752 2.3345 13.9942 2.33334H14.0058C14.701 2.33489 15.3672 2.61213 15.8582 3.10425C16.3492 3.59636 16.625 4.26316 16.625 4.95834Z" fill="#3F8133"/>
<path fill-rule="evenodd" clip-rule="evenodd" d="M9.33333 12.8334C9.75858 12.8334 10.157 12.7196 10.5 12.5213V16.9167V16.9149L10.4988 16.9219C10.4947 16.9488 10.4802 17.0503 10.4259 17.2539C10.3647 17.486 10.2719 17.7794 10.1541 18.1207L10.0899 18.305C9.55216 18.5578 9.13112 19.0063 8.91269 19.5589C8.69427 20.1116 8.69491 20.7267 8.91449 21.2789C8.61888 21.9806 8.31611 22.6792 8.00625 23.3748L7.97766 23.4378C7.85849 23.7022 7.84208 24.0015 7.93162 24.2774C8.02116 24.5532 8.21024 24.7858 8.46199 24.9298C8.71373 25.0738 9.01009 25.1189 9.29327 25.0563C9.57645 24.9936 9.82614 24.8278 9.99366 24.591L11.305 22.7395C11.639 22.7077 11.9622 22.6042 12.2526 22.4361C12.543 22.268 12.7938 22.0393 12.9877 21.7655C13.1817 21.4917 13.3143 21.1793 13.3765 20.8496C13.4388 20.5199 13.4292 20.1806 13.3484 19.8549L14 18.935L18.0063 24.591C18.1738 24.8278 18.4235 24.9936 18.7067 25.0563C18.9899 25.1189 19.2863 25.0738 19.538 24.9298C19.7897 24.7858 19.9788 24.5532 20.0684 24.2774C20.1579 24.0015 20.1415 23.7022 20.0223 23.4378L19.9937 23.3748C19.8665 23.0911 19.7411 22.8066 19.6175 22.5214C19.3737 21.9614 19.0493 21.2042 18.7256 20.4126C18.4126 19.6564 18.1192 18.8921 17.8459 18.1207C17.7451 17.835 17.6544 17.5459 17.5741 17.2539C17.5198 17.0497 17.5052 16.9488 17.5012 16.9219L17.5006 16.9161C17.5006 16.9142 17.5004 16.9144 17.5 16.9167V15.4379C17.8208 15.2528 18.0928 14.9941 18.2938 14.683C18.4947 14.3719 18.6187 14.0174 18.6555 13.649C18.6924 13.2805 18.6409 12.9085 18.5055 12.5638C18.3701 12.2191 18.1546 11.9116 17.8768 11.6667H21C21.3094 11.6667 21.6062 11.5438 21.825 11.325C22.0437 11.1062 22.1667 10.8094 22.1667 10.5C22.1667 10.1906 22.0437 9.89385 21.825 9.67506C21.6062 9.45627 21.3094 9.33335 21 9.33335H11.3546C11.1497 8.97857 10.8551 8.68396 10.5003 8.47916C10.1455 8.27437 9.743 8.1666 9.33333 8.16669C8.46999 8.16669 7.71574 8.63569 7.31208 9.33335H6.99999C6.69058 9.33335 6.39383 9.45627 6.17504 9.67506C5.95624 9.89385 5.83333 10.1906 5.83333 10.5C5.83333 10.8094 5.95624 11.1062 6.17504 11.325C6.39383 11.5438 6.69058 11.6667 6.99999 11.6667H7.31208C7.51692 12.0215 7.81155 12.3161 8.16636 12.5209C8.52118 12.7257 8.92365 12.8334 9.33333 12.8334ZM10.5 10.5C10.5 10.8094 10.3771 11.1062 10.1583 11.325C9.93949 11.5438 9.64275 11.6667 9.33333 11.6667C9.02391 11.6667 8.72716 11.5438 8.50837 11.325C8.28958 11.1062 8.16666 10.8094 8.16666 10.5C8.16666 10.1906 8.28958 9.89385 8.50837 9.67506C8.72716 9.45627 9.02391 9.33335 9.33333 9.33335C9.64275 9.33335 9.93949 9.45627 10.1583 9.67506C10.3771 9.89385 10.5 10.1906 10.5 10.5ZM17.5 13.4167C17.5 13.7261 17.3771 14.0229 17.1583 14.2416C16.9395 14.4604 16.6427 14.5834 16.3333 14.5834C16.0239 14.5834 15.7272 14.4604 15.5084 14.2416C15.2896 14.0229 15.1667 13.7261 15.1667 13.4167C15.1667 13.1073 15.2896 12.8105 15.5084 12.5917C15.7272 12.3729 16.0239 12.25 16.3333 12.25C16.6427 12.25 16.9395 12.3729 17.1583 12.5917C17.3771 12.8105 17.5 13.1073 17.5 13.4167ZM12.25 20.4167C12.25 20.7261 12.1271 21.0229 11.9083 21.2416C11.6895 21.4604 11.3927 21.5834 11.0833 21.5834C10.7739 21.5834 10.4772 21.4604 10.2584 21.2416C10.0396 21.0229 9.91666 20.7261 9.91666 20.4167C9.91666 20.1073 10.0396 19.8105 10.2584 19.5917C10.4772 19.3729 10.7739 19.25 11.0833 19.25C11.3927 19.25 11.6895 19.3729 11.9083 19.5917C12.1271 19.8105 12.25 20.1073 12.25 20.4167Z" fill="#3F8133"/>
</svg>
