<svg width="35" height="36" viewBox="0 0 35 36" fill="none" xmlns="http://www.w3.org/2000/svg">
<g clip-path="url(#clip0_181_17)">
<path d="M0.747323 17.7844C0.746503 20.8091 1.52086 23.7625 2.99328 26.3657L0.606506 35.2599L9.52472 32.8733C11.9914 34.2438 14.7551 34.962 17.5636 34.9622H17.571C26.8423 34.9622 34.3894 27.2622 34.3934 17.798C34.3952 13.2119 32.6468 8.89942 29.4704 5.65495C26.2945 2.41077 22.0707 0.623187 17.5703 0.621094C8.29784 0.621094 0.751288 8.32063 0.74746 17.7844" fill="url(#paint0_linear_181_17)"/>
<path d="M0.146285 17.8842C0.145328 21.0177 0.947437 24.0768 2.47236 26.7731L0 35.9862L9.23799 33.5141C11.7834 34.9305 14.6492 35.6773 17.5653 35.6784H17.5728C27.1768 35.6784 34.995 27.7015 34.9991 17.8984C35.0008 13.1476 33.1896 8.68006 29.8996 5.31936C26.6093 1.95909 22.2344 0.107178 17.5728 0.105225C7.96722 0.105225 0.150113 8.08104 0.146285 17.8842ZM5.64785 26.3088L5.30291 25.7499C3.85291 23.3968 3.08758 20.6776 3.08867 17.8853C3.09168 9.73718 9.58894 3.10802 17.5783 3.10802C21.4474 3.10969 25.0834 4.64904 27.8183 7.44197C30.553 10.2352 32.0578 13.9482 32.0569 17.8973C32.0533 26.0455 25.5559 32.6755 17.5728 32.6755H17.5671C14.9677 32.6741 12.4184 31.9616 10.1951 30.6152L9.66605 30.295L4.18404 31.7619L5.64785 26.3088Z" fill="url(#paint1_linear_181_17)"/>
<path d="M13.2178 10.3463C12.8916 9.60636 12.5483 9.59143 12.2381 9.57845C11.9841 9.56729 11.6937 9.56813 11.4036 9.56813C11.1132 9.56813 10.6414 9.67962 10.2426 10.124C9.8434 10.5689 8.71851 11.6439 8.71851 13.8302C8.71851 16.0166 10.2788 18.1297 10.4964 18.4265C10.7141 18.7227 13.5086 23.3531 17.9344 25.1344C21.6125 26.6147 22.3611 26.3203 23.1593 26.246C23.9578 26.1721 25.7356 25.1713 26.0983 24.1336C26.4613 23.096 26.4613 22.2066 26.3525 22.0208C26.2436 21.8356 25.9533 21.7244 25.5178 21.5023C25.0824 21.2801 22.9416 20.2049 22.5425 20.0565C22.1433 19.9084 21.853 19.8344 21.5626 20.2794C21.2723 20.7237 20.4384 21.7244 20.1843 22.0208C19.9304 22.3179 19.6762 22.3548 19.2409 22.1325C18.8052 21.9096 17.4029 21.4409 15.7393 19.9271C14.4448 18.7491 13.5709 17.2945 13.3169 16.8495C13.0629 16.4052 13.2897 16.1644 13.5081 15.9429C13.7037 15.7438 13.9436 15.424 14.1616 15.1646C14.3787 14.9051 14.4511 14.7199 14.5963 14.4235C14.7416 14.1269 14.6689 13.8673 14.5602 13.6451C14.4511 13.4228 13.605 11.225 13.2178 10.3463Z" fill="white"/>
</g>
<defs>
<linearGradient id="paint0_linear_181_17" x1="1689.95" y1="3464.51" x2="1689.95" y2="0.621094" gradientUnits="userSpaceOnUse">
<stop stop-color="#1FAF38"/>
<stop offset="1" stop-color="#60D669"/>
</linearGradient>
<linearGradient id="paint1_linear_181_17" x1="1749.96" y1="3588.2" x2="1749.96" y2="0.105225" gradientUnits="userSpaceOnUse">
<stop stop-color="#F9F9F9"/>
<stop offset="1" stop-color="white"/>
</linearGradient>
<clipPath id="clip0_181_17">
<rect width="35" height="36" fill="white"/>
</clipPath>
</defs>
</svg>
