<svg width="13" height="15" viewBox="0 0 13 15" fill="none" xmlns="http://www.w3.org/2000/svg">
<path d="M12.6418 0.17292C12.5698 0.0931639 12.4788 0.0379435 12.3796 0.0137518C12.2804 -0.0104399 12.177 -0.00259712 12.0816 0.036358L0.344305 4.78636C0.24308 4.82909 0.155931 4.90508 0.0944339 5.00424C0.0329362 5.10339 0 5.22103 0 5.34151C0 5.462 0.0329362 5.57963 0.0944339 5.67879C0.155931 5.77795 0.24308 5.85394 0.344305 5.89667L4.92719 7.93323L8.30968 4.15698L9.06193 4.99417L5.66344 8.77636L7.49873 13.8767C7.53827 13.9871 7.6067 14.0819 7.69517 14.1486C7.78363 14.2153 7.88805 14.2508 7.9949 14.2507C8.10272 14.2483 8.20733 14.2095 8.29495 14.1395C8.38258 14.0696 8.44909 13.9717 8.48573 13.8589L12.7539 0.796358C12.7902 0.69131 12.799 0.576926 12.7791 0.466544C12.7593 0.356162 12.7117 0.25433 12.6418 0.17292Z" fill="white"/>
</svg>
