<svg width="32" height="32" viewBox="0 0 32 32" fill="none" xmlns="http://www.w3.org/2000/svg">
<path d="M4.57143 0C2.05 0 0 2.01797 0 4.5V27C0 29.482 2.05 31.5 4.57143 31.5H27.4286C29.95 31.5 32 29.482 32 27V4.5C32 2.01797 29.95 0 27.4286 0H4.57143ZM25.7929 5.90625L18.3786 14.2453L27.1 25.5938H20.2714L14.9286 18.7102L8.80714 25.5938H5.41429L13.3429 16.6711L4.97857 5.90625H11.9786L16.8143 12.1992L22.4 5.90625H25.7929ZM23.0929 23.5969L10.9571 7.79766H8.93571L21.2071 23.5969H23.0929Z" fill="black"/>
</svg>
