<svg width="84" height="71" viewBox="0 0 84 71" fill="none" xmlns="http://www.w3.org/2000/svg">
<path fill-rule="evenodd" clip-rule="evenodd" d="M29.0083 64.4546C16.7458 55.0587 0 39.5379 0 24.8629C0 0.346241 22.9167 -8.80793 41.6667 10.1254C60.4167 -8.80793 83.3333 0.346241 83.3333 24.8629C83.3333 39.5379 66.5833 55.0587 54.325 64.4546C48.775 68.7046 46 70.8337 41.6667 70.8337C37.3333 70.8337 34.5583 68.7087 29.0083 64.4546ZM60.4167 13.5421C61.2455 13.5421 62.0403 13.8713 62.6264 14.4574C63.2124 15.0434 63.5417 15.8383 63.5417 16.6671V21.8754H68.75C69.5788 21.8754 70.3737 22.2046 70.9597 22.7907C71.5458 23.3768 71.875 24.1716 71.875 25.0004C71.875 25.8292 71.5458 26.6241 70.9597 27.2101C70.3737 27.7962 69.5788 28.1254 68.75 28.1254H63.5417V33.3337C63.5417 34.1625 63.2124 34.9574 62.6264 35.5434C62.0403 36.1295 61.2455 36.4587 60.4167 36.4587C59.5879 36.4587 58.793 36.1295 58.207 35.5434C57.6209 34.9574 57.2917 34.1625 57.2917 33.3337V28.1254H52.0833C51.2545 28.1254 50.4597 27.7962 49.8736 27.2101C49.2876 26.6241 48.9583 25.8292 48.9583 25.0004C48.9583 24.1716 49.2876 23.3768 49.8736 22.7907C50.4597 22.2046 51.2545 21.8754 52.0833 21.8754H57.2917V16.6671C57.2917 15.8383 57.6209 15.0434 58.207 14.4574C58.793 13.8713 59.5879 13.5421 60.4167 13.5421Z" fill="#EA236F"/>
</svg>
