<svg width="75" height="75" viewBox="0 0 75 75" fill="none" xmlns="http://www.w3.org/2000/svg">
<path fill-rule="evenodd" clip-rule="evenodd" d="M37.5 4.16667C37.5 5.27174 37.939 6.33154 38.7204 7.11294C39.5018 7.89435 40.5616 8.33333 41.6667 8.33333H60.775L38.7208 30.3875C38.1383 30.9702 37.7416 31.7126 37.5809 32.5207C37.4202 33.3288 37.5027 34.1665 37.818 34.9277C38.1333 35.689 38.6672 36.3397 39.3523 36.7975C40.0373 37.2554 40.8427 37.4998 41.6667 37.5H70.8333C71.9384 37.5 72.9982 37.061 73.7796 36.2796C74.561 35.4982 75 34.4384 75 33.3333C75 32.2283 74.561 31.1685 73.7796 30.3871C72.9982 29.6057 71.9384 29.1667 70.8333 29.1667H51.725L73.7792 7.1125C74.3617 6.52978 74.7584 5.78744 74.9191 4.9793C75.0798 4.17116 74.9973 3.33352 74.682 2.57227C74.3667 1.81102 73.8328 1.16034 73.1477 0.702493C72.4627 0.244642 71.6573 0.000175935 70.8333 0H41.6667C40.5616 0 39.5018 0.438987 38.7204 1.22039C37.939 2.00179 37.5 3.0616 37.5 4.16667ZM4.16667 29.1667C3.0616 29.1667 2.00179 28.7277 1.22039 27.9463C0.438987 27.1649 0 26.1051 0 25C0 23.8949 0.438987 22.8351 1.22039 22.0537C2.00179 21.2723 3.0616 20.8333 4.16667 20.8333H25C25.824 20.8335 26.6294 21.078 27.3144 21.5358C27.9994 21.9937 28.5334 22.6444 28.8487 23.4056C29.1639 24.1669 29.2465 25.0045 29.0858 25.8126C28.9251 26.6208 28.5284 27.3631 27.9458 27.9458L14.225 41.6667H25C26.1051 41.6667 27.1649 42.1057 27.9463 42.8871C28.7277 43.6685 29.1667 44.7283 29.1667 45.8333C29.1667 46.9384 28.7277 47.9982 27.9463 48.7796C27.1649 49.561 26.1051 50 25 50H4.16667C3.34271 49.9998 2.5373 49.7554 1.85226 49.2975C1.16721 48.8397 0.6333 48.189 0.318009 47.4277C0.00271682 46.6665 -0.0797958 45.8288 0.0809024 45.0207C0.241601 44.2126 0.638294 43.4702 1.22083 42.8875L14.9417 29.1667H4.16667ZM37.5 58.3333C36.3949 58.3333 35.3351 57.8943 34.5537 57.1129C33.7723 56.3315 33.3333 55.2717 33.3333 54.1667C33.3333 53.0616 33.7723 52.0018 34.5537 51.2204C35.3351 50.439 36.3949 50 37.5 50H54.1667C54.9906 50.0002 55.796 50.2446 56.4811 50.7025C57.1661 51.1603 57.7 51.811 58.0153 52.5723C58.3306 53.3335 58.4131 54.1712 58.2524 54.9793C58.0917 55.7874 57.695 56.5298 57.1125 57.1125L47.5583 66.6667H54.1667C55.2717 66.6667 56.3315 67.1056 57.1129 67.887C57.8943 68.6684 58.3333 69.7283 58.3333 70.8333C58.3333 71.9384 57.8943 72.9982 57.1129 73.7796C56.3315 74.561 55.2717 75 54.1667 75H37.5C36.676 74.9998 35.8706 74.7554 35.1856 74.2975C34.5005 73.8397 33.9666 73.189 33.6513 72.4277C33.336 71.6665 33.2535 70.8288 33.4142 70.0207C33.5749 69.2126 33.9716 68.4702 34.5542 67.8875L44.1083 58.3333H37.5Z" fill="#9F3691"/>
</svg>
