<svg width="28" height="28" viewBox="0 0 28 28" fill="none" xmlns="http://www.w3.org/2000/svg">
<path d="M27.7445 14C27.7445 6.2685 21.5332 0 13.8728 0C6.2125 0 0 6.2685 0 14C0 21.7315 6.21133 28 13.8728 28C16.2225 28 18.4345 27.4073 20.3747 26.3667C21.098 26.7797 21.9357 27.0177 22.8305 27.0177C25.5442 27.0177 27.7445 24.8418 27.7445 22.1585C27.7445 21.0548 27.3723 20.0375 26.7447 19.222C27.3887 17.6085 27.7445 15.8457 27.7445 14ZM2.7755 14.0058C2.7755 7.64983 7.756 2.49783 13.8997 2.49783C20.0433 2.49783 25.0238 7.64983 25.0238 14.0058C25.0238 15.2542 24.8302 16.4547 24.4743 17.5793C23.9467 17.3933 23.3911 17.299 22.8317 17.3005C20.118 17.3005 17.9177 19.4763 17.9177 22.1597C17.9177 22.9997 18.1335 23.7895 18.5127 24.479C17.0715 25.1627 15.496 25.5167 13.9008 25.515C7.756 25.5138 2.7755 20.3607 2.7755 14.0058ZM22.8317 25.5138C21.0653 25.5383 19.5183 24.0357 19.5428 22.2612C19.5428 20.4645 21.0152 19.0085 22.8317 19.0085C24.5898 18.9793 26.1485 20.4902 26.1205 22.2612C26.1205 24.0578 24.647 25.5138 22.8317 25.5138Z" fill="#3F8133"/>
</svg>
