<svg width="24" height="20" viewBox="0 0 24 20" fill="none" xmlns="http://www.w3.org/2000/svg">
<path fill-rule="evenodd" clip-rule="evenodd" d="M8.12233 18.0473C4.68883 15.4164 0 11.0706 0 6.96161C0 0.0969476 6.41667 -2.46622 11.6667 2.83511C16.9167 -2.46622 23.3333 0.0969476 23.3333 6.96161C23.3333 11.0706 18.6433 15.4164 15.211 18.0473C13.657 19.2373 12.88 19.8334 11.6667 19.8334C10.4533 19.8334 9.67633 19.2384 8.12233 18.0473ZM16.9167 3.79178C17.1487 3.79178 17.3713 3.88397 17.5354 4.04806C17.6995 4.21216 17.7917 4.43472 17.7917 4.66678V6.12511H19.25C19.4821 6.12511 19.7046 6.2173 19.8687 6.3814C20.0328 6.54549 20.125 6.76805 20.125 7.00011C20.125 7.23218 20.0328 7.45474 19.8687 7.61883C19.7046 7.78293 19.4821 7.87511 19.25 7.87511H17.7917V9.33345C17.7917 9.56551 17.6995 9.78807 17.5354 9.95216C17.3713 10.1163 17.1487 10.2084 16.9167 10.2084C16.6846 10.2084 16.462 10.1163 16.2979 9.95216C16.1339 9.78807 16.0417 9.56551 16.0417 9.33345V7.87511H14.5833C14.3513 7.87511 14.1287 7.78293 13.9646 7.61883C13.8005 7.45474 13.7083 7.23218 13.7083 7.00011C13.7083 6.76805 13.8005 6.54549 13.9646 6.3814C14.1287 6.2173 14.3513 6.12511 14.5833 6.12511H16.0417V4.66678C16.0417 4.43472 16.1339 4.21216 16.2979 4.04806C16.462 3.88397 16.6846 3.79178 16.9167 3.79178Z" fill="#3F8133"/>
</svg>
