<svg width="23" height="23" viewBox="0 0 23 23" fill="none" xmlns="http://www.w3.org/2000/svg">
<path d="M6.76667 22.75H2.33333C1.69167 22.75 1.14256 22.5217 0.686 22.0652C0.229444 21.6086 0.000777778 21.0591 0 20.4167V15.9833C0.933333 15.9833 1.75 15.687 2.45 15.0943C3.15 14.5017 3.5 13.748 3.5 12.8333C3.5 11.9187 3.15 11.1654 2.45 10.5735C1.75 9.98161 0.933333 9.68489 0 9.68333V5.25C0 4.60833 0.228667 4.05922 0.686 3.60267C1.14333 3.14611 1.69244 2.91744 2.33333 2.91667H7C7 2.1 7.28194 1.40972 7.84583 0.845833C8.40972 0.281944 9.1 0 9.91667 0C10.7333 0 11.4236 0.281944 11.9875 0.845833C12.5514 1.40972 12.8333 2.1 12.8333 2.91667H17.5C18.1417 2.91667 18.6912 3.14533 19.1485 3.60267C19.6058 4.06 19.8341 4.60911 19.8333 5.25V9.91667C20.65 9.91667 21.3403 10.1986 21.9042 10.7625C22.4681 11.3264 22.75 12.0167 22.75 12.8333C22.75 13.65 22.4681 14.3403 21.9042 14.9042C21.3403 15.4681 20.65 15.75 19.8333 15.75V20.4167C19.8333 21.0583 19.6051 21.6078 19.1485 22.0652C18.6919 22.5225 18.1424 22.7508 17.5 22.75H13.0667C13.0667 21.7778 12.7606 20.9514 12.1485 20.2708C11.5364 19.5903 10.7924 19.25 9.91667 19.25C9.04089 19.25 8.29733 19.5903 7.686 20.2708C7.07467 20.9514 6.76822 21.7778 6.76667 22.75Z" fill="#3F8133"/>
</svg>
