<svg width="84" height="84" viewBox="0 0 84 84" fill="none" xmlns="http://www.w3.org/2000/svg">
<path d="M4.16667 29.1667C5.27174 29.1667 6.33154 28.7277 7.11295 27.9463C7.89435 27.1649 8.33333 26.1051 8.33333 25V12.5C8.33333 11.3949 8.77232 10.3351 9.55372 9.55372C10.3351 8.77232 11.3949 8.33333 12.5 8.33333H25C26.1051 8.33333 27.1649 7.89435 27.9463 7.11295C28.7277 6.33154 29.1667 5.27174 29.1667 4.16667C29.1667 3.0616 28.7277 2.00179 27.9463 1.22039C27.1649 0.438987 26.1051 0 25 0H12.5C9.18479 0 6.00537 1.31696 3.66117 3.66117C1.31696 6.00537 0 9.18479 0 12.5V25C0 26.1051 0.438987 27.1649 1.22039 27.9463C2.00179 28.7277 3.0616 29.1667 4.16667 29.1667ZM25 75H12.5C11.3949 75 10.3351 74.561 9.55372 73.7796C8.77232 72.9982 8.33333 71.9384 8.33333 70.8333V58.3333C8.33333 57.2283 7.89435 56.1685 7.11295 55.3871C6.33154 54.6057 5.27174 54.1667 4.16667 54.1667C3.0616 54.1667 2.00179 54.6057 1.22039 55.3871C0.438987 56.1685 0 57.2283 0 58.3333V70.8333C0 74.1485 1.31696 77.328 3.66117 79.6722C6.00537 82.0164 9.18479 83.3333 12.5 83.3333H25C26.1051 83.3333 27.1649 82.8943 27.9463 82.1129C28.7277 81.3315 29.1667 80.2717 29.1667 79.1667C29.1667 78.0616 28.7277 77.0018 27.9463 76.2204C27.1649 75.439 26.1051 75 25 75ZM62.5 45.8333C63.6051 45.8333 64.6649 45.3943 65.4463 44.6129C66.2277 43.8315 66.6667 42.7717 66.6667 41.6667C66.6667 40.5616 66.2277 39.5018 65.4463 38.7204C64.6649 37.939 63.6051 37.5 62.5 37.5H57.75C57.0018 34.6339 55.5034 32.019 53.4088 29.9245C51.3143 27.83 48.6994 26.3315 45.8333 25.5833V20.8333C45.8333 19.7283 45.3943 18.6685 44.6129 17.8871C43.8315 17.1057 42.7717 16.6667 41.6667 16.6667C40.5616 16.6667 39.5018 17.1057 38.7204 17.8871C37.939 18.6685 37.5 19.7283 37.5 20.8333V25.5833C34.6339 26.3315 32.019 27.83 29.9245 29.9245C27.83 32.019 26.3315 34.6339 25.5833 37.5H20.8333C19.7283 37.5 18.6685 37.939 17.8871 38.7204C17.1057 39.5018 16.6667 40.5616 16.6667 41.6667C16.6667 42.7717 17.1057 43.8315 17.8871 44.6129C18.6685 45.3943 19.7283 45.8333 20.8333 45.8333H25.5833C26.3315 48.6994 27.83 51.3143 29.9245 53.4088C32.019 55.5034 34.6339 57.0018 37.5 57.75V62.5C37.5 63.6051 37.939 64.6649 38.7204 65.4463C39.5018 66.2277 40.5616 66.6667 41.6667 66.6667C42.7717 66.6667 43.8315 66.2277 44.6129 65.4463C45.3943 64.6649 45.8333 63.6051 45.8333 62.5V57.75C48.6994 57.0018 51.3143 55.5034 53.4088 53.4088C55.5034 51.3143 57.0018 48.6994 57.75 45.8333H62.5ZM41.6667 50C40.0185 50 38.4073 49.5113 37.0369 48.5956C35.6665 47.6799 34.5984 46.3784 33.9677 44.8557C33.3369 43.333 33.1719 41.6574 33.4935 40.0409C33.815 38.4244 34.6087 36.9395 35.7741 35.7741C36.9395 34.6087 38.4244 33.815 40.0409 33.4935C41.6574 33.1719 43.333 33.3369 44.8557 33.9677C46.3784 34.5984 47.6799 35.6665 48.5956 37.0369C49.5113 38.4073 50 40.0185 50 41.6667C50 43.8768 49.122 45.9964 47.5592 47.5592C45.9964 49.122 43.8768 50 41.6667 50ZM79.1667 54.1667C78.0616 54.1667 77.0018 54.6057 76.2204 55.3871C75.439 56.1685 75 57.2283 75 58.3333V70.8333C75 71.9384 74.561 72.9982 73.7796 73.7796C72.9982 74.561 71.9384 75 70.8333 75H58.3333C57.2283 75 56.1685 75.439 55.3871 76.2204C54.6057 77.0018 54.1667 78.0616 54.1667 79.1667C54.1667 80.2717 54.6057 81.3315 55.3871 82.1129C56.1685 82.8943 57.2283 83.3333 58.3333 83.3333H70.8333C74.1485 83.3333 77.328 82.0164 79.6722 79.6722C82.0164 77.328 83.3333 74.1485 83.3333 70.8333V58.3333C83.3333 57.2283 82.8943 56.1685 82.1129 55.3871C81.3315 54.6057 80.2717 54.1667 79.1667 54.1667ZM70.8333 0H58.3333C57.2283 0 56.1685 0.438987 55.3871 1.22039C54.6057 2.00179 54.1667 3.0616 54.1667 4.16667C54.1667 5.27174 54.6057 6.33154 55.3871 7.11295C56.1685 7.89435 57.2283 8.33333 58.3333 8.33333H70.8333C71.9384 8.33333 72.9982 8.77232 73.7796 9.55372C74.561 10.3351 75 11.3949 75 12.5V25C75 26.1051 75.439 27.1649 76.2204 27.9463C77.0018 28.7277 78.0616 29.1667 79.1667 29.1667C80.2717 29.1667 81.3315 28.7277 82.1129 27.9463C82.8943 27.1649 83.3333 26.1051 83.3333 25V12.5C83.3333 9.18479 82.0164 6.00537 79.6722 3.66117C77.328 1.31696 74.1485 0 70.8333 0Z" fill="#DA483B"/>
</svg>
