<svg width="18" height="24" viewBox="0 0 18 24" fill="none" xmlns="http://www.w3.org/2000/svg">
<path fill-rule="evenodd" clip-rule="evenodd" d="M8.75 0L8.3475 0.385L8.34517 0.387333L8.33992 0.392L8.32125 0.410667L8.25008 0.480083C8.18786 0.541139 8.09919 0.629611 7.98408 0.7455C6.62013 2.1377 5.35474 3.62315 4.19708 5.19108C2.14725 7.98 0 11.7145 0 15.2133C0 19.7429 3.96433 23.3333 8.75 23.3333C13.5357 23.3333 17.5 19.7429 17.5 15.2133C17.5 11.7133 15.3527 7.97942 13.3029 5.19167C12.1453 3.62353 10.8799 2.13789 9.51592 0.7455C9.40461 0.632801 9.29222 0.521185 9.17875 0.410667L9.16008 0.392L9.15425 0.387333L9.1525 0.385L8.75 0ZM3.77125 15.9827C3.7475 15.9099 3.70964 15.8424 3.65982 15.7842C3.61 15.726 3.5492 15.6782 3.4809 15.6434C3.41259 15.6087 3.33812 15.5878 3.26173 15.5819C3.18533 15.5759 3.10852 15.5851 3.03567 15.6088C2.96282 15.6326 2.89536 15.6704 2.83714 15.7203C2.77892 15.7701 2.73109 15.8309 2.69636 15.8992C2.66164 15.9675 2.64072 16.042 2.63478 16.1184C2.62884 16.1948 2.638 16.2716 2.66175 16.3444C3.09877 17.6946 3.95164 18.8719 5.09833 19.7079C6.24367 20.5428 7.62435 20.9927 9.04167 20.993C9.36367 20.993 9.625 20.7311 9.625 20.4079C9.625 20.0847 9.36367 19.8228 9.04167 19.8228C7.87101 19.8219 6.73072 19.4502 5.78433 18.7612C4.83704 18.0703 4.13243 17.0982 3.77125 15.9827Z" fill="#3F8133"/>
</svg>
