<svg width="25" height="24" viewBox="0 0 25 24" fill="none" xmlns="http://www.w3.org/2000/svg">
<path d="M12.25 0C9.78502 0 7.76562 2.01939 7.76562 4.48438C7.76562 5.89597 8.4286 7.16056 9.45755 7.98438H5.25L0 23.7344H24.5L19.25 7.98438H15.0425C16.0714 7.16056 16.7344 5.89597 16.7344 4.48438C16.7344 2.01939 14.715 0 12.25 0ZM12.25 1.96875C13.651 1.96875 14.7656 3.08339 14.7656 4.48438C14.7656 5.88536 13.651 7 12.25 7C10.849 7 9.73438 5.88536 9.73438 4.48438C9.73438 3.08339 10.849 1.96875 12.25 1.96875ZM7.75387 13.0676H9.03902V14.8866L10.8915 13.0675H12.3835L9.98364 15.4273L12.6305 18.0509H11.0217L9.03902 16.0882V18.0509H7.75387V13.0676ZM14.3128 14.2291C14.5731 14.2291 14.8023 14.2803 15.0003 14.3826C15.1983 14.4849 15.3797 14.6463 15.5445 14.8666V14.3126H16.7461V17.6738C16.7461 18.2746 16.5558 18.733 16.1753 19.049C15.797 19.3672 15.2473 19.5263 14.5263 19.5262C14.2928 19.5262 14.0669 19.5084 13.8487 19.4729C13.6255 19.436 13.4056 19.3813 13.1912 19.3093V18.378C13.4004 18.4982 13.6052 18.5872 13.8053 18.6451C14.0057 18.7052 14.2071 18.7352 14.4096 18.7352C14.8012 18.7352 15.0883 18.6495 15.2707 18.4782C15.4532 18.3069 15.5445 18.0388 15.5445 17.6739V17.4168C15.3798 17.6348 15.1985 17.795 15.0003 17.8974C14.8023 17.9997 14.5731 18.0509 14.3128 18.051C13.8566 18.051 13.4794 17.8719 13.1813 17.5136C12.883 17.1531 12.7339 16.6947 12.7339 16.1384C12.7339 15.5799 12.883 15.1226 13.1813 14.7666C13.4794 14.4083 13.8566 14.2292 14.3128 14.2291ZM14.7567 15.0903C14.5097 15.0903 14.3172 15.1815 14.1792 15.364C14.0413 15.5465 13.9723 15.8047 13.9723 16.1384C13.9723 16.4811 14.039 16.7414 14.1725 16.9194C14.3061 17.0952 14.5008 17.1831 14.7567 17.1831C15.0059 17.1831 15.1995 17.0919 15.3375 16.9094C15.4755 16.7269 15.5445 16.4699 15.5444 16.1384C15.5444 15.8046 15.4754 15.5465 15.3374 15.364C15.1995 15.1815 15.0059 15.0903 14.7567 15.0903H14.7567Z" fill="#3F8133"/>
</svg>
